/* XPM */
static char *barrel32[] = {
/* columns rows colors chars-per-pixel */
"32 32 215 2 ",
"   c #3E3628",
".  c #333334",
"X  c #3F3A31",
"o  c #3C3934",
"O  c #373839",
"+  c #3E3E3D",
"@  c #4F3B1A",
"#  c #503B1B",
"$  c #513B1B",
"%  c #523C1B",
"&  c #503B1C",
"*  c #513B1C",
"=  c #503B1E",
"-  c #523D1F",
";  c #543D1C",
":  c #553D1D",
">  c #5B3F1F",
",  c #403624",
"<  c #473A24",
"1  c #493924",
"2  c #463D2A",
"3  c #493D2D",
"4  c #523D20",
"5  c #523F23",
"6  c #553E21",
"7  c #553E22",
"8  c #563F22",
"9  c #523F24",
"0  c #403E3B",
"q  c #443F38",
"w  c #403E3C",
"e  c #5A401D",
"r  c #4B402F",
"t  c #5A4021",
"y  c #5C4224",
"u  c #5E4325",
"i  c #5E4226",
"p  c #42403B",
"a  c #41403D",
"s  c #4E463C",
"d  c #5C4937",
"f  c #5B4C3C",
"g  c #644626",
"h  c #694623",
"j  c #6F4925",
"k  c #654628",
"l  c #664728",
"z  c #694829",
"x  c #6A492B",
"c  c #714925",
"v  c #724926",
"b  c #724A27",
"n  c #734A27",
"m  c #754B26",
"M  c #764C27",
"N  c #704C2C",
"B  c #714E2E",
"V  c #724E2F",
"C  c #7A4D28",
"Z  c #7D4F2A",
"A  c #7F502C",
"S  c #604D3B",
"D  c #614D3C",
"F  c #755030",
"G  c #7B5432",
"H  c #7F5432",
"J  c #404141",
"K  c #474642",
"L  c #494540",
"P  c #484744",
"I  c #494846",
"U  c #4A4947",
"Y  c #484849",
"T  c #494A4A",
"R  c #4C4A48",
"E  c #4B4B4C",
"W  c #4C4C4D",
"Q  c #4D4D4D",
"!  c #4D4E4E",
"~  c #4D4E4F",
"^  c #504F4B",
"/  c #52514F",
"(  c #555351",
")  c #565350",
"_  c #565451",
"`  c #575653",
"'  c #555555",
"]  c #595754",
"[  c #5C5855",
"{  c #58595A",
"}  c #5A5A5A",
"|  c #5C5D5D",
" . c #655241",
".. c #6C5442",
"X. c #695544",
"o. c #715A48",
"O. c #755D49",
"+. c #615E5A",
"@. c #7A634F",
"#. c #6C6157",
"$. c #62605D",
"%. c #64615E",
"&. c #67635F",
"*. c #7B6451",
"=. c #7F6450",
"-. c #74665A",
";. c #5F6060",
":. c #616161",
">. c #646360",
",. c #656361",
"<. c #646667",
"1. c #666667",
"2. c #6B6763",
"3. c #6A6A6A",
"4. c #6D6B69",
"5. c #6A6B6C",
"6. c #6B6C6C",
"7. c #716C68",
"8. c #706D69",
"9. c #726E6B",
"0. c #736E6B",
"q. c #75706D",
"w. c #76726E",
"e. c #6F7071",
"r. c #787471",
"t. c #7A7470",
"y. c #7E7874",
"u. c #7F7B78",
"i. c #7D7E7F",
"p. c #80502B",
"a. c #80502C",
"s. c #81522C",
"d. c #80522D",
"f. c #81522D",
"g. c #83532C",
"h. c #84542D",
"j. c #825836",
"k. c #835837",
"l. c #855936",
"z. c #875A37",
"x. c #885832",
"c. c #8F5B32",
"v. c #885B39",
"b. c #8C5B38",
"n. c #8A5C3A",
"m. c #8E5F3C",
"M. c #905B32",
"N. c #935C34",
"B. c #915D37",
"V. c #965E35",
"C. c #955E36",
"Z. c #965E36",
"A. c #965F36",
"S. c #965F37",
"D. c #996036",
"F. c #93603C",
"G. c #94613E",
"H. c #95633E",
"J. c #9B6038",
"K. c #9F6138",
"L. c #9F6239",
"P. c #9C623A",
"I. c #9F633B",
"U. c #9A633C",
"Y. c #9F663F",
"T. c #A1633A",
"R. c #A0633B",
"E. c #A2643A",
"W. c #A6663D",
"Q. c #86654C",
"!. c #946644",
"~. c #986440",
"^. c #9A6742",
"/. c #9B6742",
"(. c #9E6842",
"). c #9F6942",
"_. c #996846",
"`. c #806450",
"'. c #866854",
"]. c #866956",
"[. c #886A56",
"{. c #886B57",
"}. c #8D705C",
"|. c #8F735F",
" X c #92725D",
".X c #93735E",
"XX c #A36B46",
"oX c #A56C45",
"OX c #AF6C40",
"+X c #AF6D42",
"@X c #B06E41",
"#X c #B26E41",
"$X c #B06E42",
"%X c #B16F42",
"&X c #AF734A",
"*X c #B37143",
"=X c #B47042",
"-X c #B47143",
";X c #B67143",
":X c #B27144",
">X c #B47244",
",X c #B57245",
"<X c #B67244",
"1X c #867467",
"2X c #8B7A6E",
"3X c #987660",
"4X c #9B7A63",
"5X c #9B7E6A",
"6X c #807B78",
"7X c #877E78",
"8X c #847E7A",
"9X c #85807C",
"0X c #8C837C",
"qX c #848484",
"wX c None",
/* pixels */
"wXwXwXwXwXwXwXwXwXwXwXwXwXwXwXwXwXwXwXwXwXwXwXwXwXwXwXwXwXwXwXwX",
"wXwXwXwXwXwXwXwXwXwXwXwXwXwXwXwXwXwXwXwXwXwXwXwXwXwXwXwXwXwXwXwX",
"wXwXwXwXwXwXwXwXwXwXwXwXwXwXwXwXwXwXwXwXwXwXwXwXwXwXwXwXwXwXwXwX",
"wXwXwXwXwXwXwXwXwXwXwXwXwXwXwXwXwXwXwXwXwXwXwXwXwXwXwXwXwXwXwXwX",
"wXwXwXwXwXwXwXwXwXwXwXwXwXwXwXwXwXwXwXwXwXwXwXwXwXwXwXwXwXwXwXwX",
"wXwXwXwXwXwXwXwXwXwXwXwXwXwXwXwXwXwXwXwXwXwXwXwXwXwXwXwXwXwXwXwX",
"wXwXwXwXwXwXwXwXwXwXwXwXwXwXwXwXwXwXwXwXwXwXwXwXwXwXwXwXwXwXwXwX",
"wXwXwXwXwXwXwXwXwXwXwXwXwXwXwXwXwXwXwXwXwXwXwXwXwXwXwXwXwXwXwXwX",
"wXwXwXwXwXwXwXwXwXwXwXwXwXwXwXwXwXwXwXwXwXwXwXwXwXwXwXwXwXwXwXwX",
"wXwXwXwXwXwXwXwXwXwXwXwXwXwXwXwXwXwXwXwXwXwXwXwXwXwXwXwXwXwXwXwX",
"wXwXwXwXwXwXwXwXwXwXwXwXwXwXwXwXwXwXwXwXwXwXwXwXwXwXwXwXwXwXwXwX",
"wXwXwXwXwXwXwXwXwXwXwXwXwXwXwXwXwXwXwXwXwXwXwXwXwXwXwXwXwXwXwXwX",
"wXwXwXwXwXwXwXwXwXwXwXwXwXwXwXwXwXwXwXwXwXwXwXwXwXwXwXwXwXwXwXwX",
"wXwXwXwXwXwXwXwXwXwXwXwXwXwXwXwXwXwXwXwXwXwXwXwXwXwXwXwXwXwXwXwX",
"wXwXwXwXwXwXwXwXwXwXwXwXwXwXwXwXwXwXwXwXwXwXwXwXwXwXwXwXwXwXwXwX",
"wXwXwXwXwXwXwXwXwXwXwXwX3.wXwXwXwXwXwXqXwXwXwXwXwXwXwXwXwXwXwXwX",
"wXwXwXwXwXwXwXwXwXwXi.;.E T W Q ! ' } :.1.6.wXwXwXwXwXwXwXwXwXwX",
"wXwXwXwXwXwXwXwXwXwX1X8Xy.7.2.&.+.[ ) ^ K p 2 wXwXwXwXwXwXwXwXwX",
"wXwXwXwXwXwXwXwXwXN.U.XX/.~.v.n.l.B l u 6 - @ wXwXwXwXwXwXwXwXwX",
"wXwXwXwXwXwXwXwXwXm.).@X=X#XD.W.L.h.m Z h g 5 wXwXwXwXwXwXwXwXwX",
"wXwXwXwXwXwXwXwXwXq.7X5X4X X{.[.`.o.X...f L w X wXwXwXwXwXwXwXwX",
"wXwXwXwXwXwXwXwXwX-.t.u.w.8.,.%.] _ / U P 0 o < wXwXwXwXwXwXwXwX",
"wXwXwXwXwXwXwXwXwXB.oX^.(.H.j.z.H N i k y 8 4 & wXwXwXwXwXwXwXwX",
"wXwXwXwXwXwXwXwXwXS.>X*X<X$XI.R.Z.f.n a.j > : # wXwXwXwXwXwXwXwX",
"wXwXwXwXwXwXwXwXwXA.-X:X,X+XP.I.C.d.b A j > : $ wXwXwXwXwXwXwXwX",
"wXwXwXwXwXwXwXwXwX!.&X%X;XOXJ.T.V.s.v p.j t 9 r wXwXwXwXwXwXwXwX",
"wXwXwXwXwXwXwXwXwX6X0X5X3X.X].'.=.o.X...S s a + wXwXwXwXwXwXwXwX",
"wXwXwXwXwXwXwXwXwX#.0.r.9.4.>.$.` ( / R I q   1 wXwXwXwXwXwXwXwX",
"wXwXwXwXwXwXwXwXwXx.b.F.G.k.V G F x i z 7 = $ % wXwXwXwXwXwXwXwX",
"wXwXwXwXwXwXwXwXwXQ._.Y.E.K.g.M.c.M c C e ; * wXwXwXwXwXwXwXwXwX",
"wXwXwXwXwXwXwXwXwXwX9X2X|.}.*.@.O. .D d 3 , wXwXwXwXwXwXwXwXwXwX",
"wXwXwXwXwXwXwXwXwXwXwXe.5.<.| { ~ Y J O . wXwXwXwXwXwXwXwXwXwXwX"
};
