/* XPM */
static char *blue32[] = {
/* columns rows colors chars-per-pixel */
"32 32 54 1 ",
"  c #080817",
". c #0F0F19",
"X c #10101F",
"o c #19191E",
"O c #030326",
"+ c #0D0D25",
"@ c #03032B",
"# c #0C0C2B",
"$ c #121225",
"% c #191921",
"& c #13132C",
"* c #1A1A2C",
"= c #020233",
"- c #0B0B34",
"; c #00003B",
": c #0D0D3B",
"> c #121233",
", c #1C1C32",
"< c #11113A",
"1 c #000043",
"2 c #0D0D44",
"3 c #00004C",
"4 c #0C0C4C",
"5 c #121245",
"6 c #000054",
"7 c #0C0C54",
"8 c #00005B",
"9 c #0D0D59",
"0 c #141455",
"q c #13135E",
"w c #3E3E46",
"e c #32324F",
"r c #3B3B4A",
"t c #2F2F51",
"y c #28285E",
"u c #333352",
"i c #000064",
"p c #0D0D62",
"a c #00006C",
"s c #000074",
"d c #00007B",
"f c #252562",
"g c #282863",
"h c #000084",
"j c #00008B",
"k c #010194",
"l c #01019C",
"z c #0000A4",
"x c #0A0AA6",
"c c #0000AA",
"v c #0000B3",
"b c #0101BA",
"n c #0A0AC8",
"m c #0000D0",
/* pixels */
"qhhhhhhhhhhdsi,djhhdd50hjjhs4hh9",
"pjhhhjhhdhdsi3$hjjjdsO9ccccj3hj;",
"phhhshhssiai63+hhhas8O9cbcld3ii=",
"pjzkhhjdaiis81+jhdss8@9cczls181O",
"phhhhdiiiiii61$hssha6O9czhhs=38@",
"9hddda66i86i81$saaa86O9czhdi;hk1",
"9dis8886631661+aa8866O9zzhd8=sa=",
"261111;==@OOOOX-=@OO# 9clhs6@;1@",
"khhhhdd2o:4492:#o&472<9zljd8@dcz",
"lklhdhd12hkkjd88<5hsa66lzha6;lmb",
"kjldsii;illjii68=2hi833lhai6;lvz",
"khhhdii=iljhii88=<1;;@1khai6;lcz",
"lhkhds8=ahhsihdi;hkss=4lja86=kvc",
"khklsa8@8dxkhjdi1hjhs=9zlh86;kbc",
"hhlh863O1hkkkhii;hlsi=9khd86=jvz",
"hhhi883@@ishhdi6;hka8@9llsi8=hvl",
"hhsi8i8O%-==;==@Ohd86Oqzlhs8=hch",
"ddai333O%38ii861$hs66O9zkdsi=hch",
"daii313O%idhsia6$jhi6O9lki86@dkh",
"si861;1Ooahsi883+hhs8O9ldi66=iss",
".$#;133;543;=O=O$ds86O4dii63@#1@",
"*hxzzzzzljda-$::*di66@>=OOO@ -6<",
"*lczzlzlljd8@:hs$8831O%9ppppppp5",
",lllljlkkhs6@:kiX4866;,xccczlxl3",
",lzkkkhlldi8O:i;$jzhd8&lczzdhhs;",
",llcchdhddi8@%$+$661;O$lvblhdds@",
",lxnchdiss33@5hhhhssi3&llljhdhi@",
",kxkhhs88i33O9jjkkkdi3$lldsddi6@",
",klhdhhiii66O7khdhjd83+llhi8813@",
",jddass88i66O7hsaasi61+kkhi6663@",
",hdaii888668=5diii8886>ddsi8686=",
"wgfffffffyffuufffffyfgwgfffffffu"
};
