/* XPM */
static char *chalice32[] = {
/* columns rows colors chars-per-pixel */
"32 32 137 2 ",
"   c #3F3E37",
".  c #772C00",
"X  c #474700",
"o  c #484800",
"O  c #4B4A00",
"+  c #4F4F00",
"@  c #534700",
"#  c #5B4A00",
"$  c #5A5800",
"%  c #5C5900",
"&  c #5D5C00",
"*  c #59560F",
"=  c #655700",
"-  c #615E00",
";  c #6F6B00",
":  c #756F00",
">  c #777600",
",  c #7E7D00",
"<  c #7E7E00",
"1  c #404040",
"2  c #424242",
"3  c #4B4B4B",
"4  c #4E4E4E",
"5  c #5B5B42",
"6  c #505050",
"7  c #525252",
"8  c #555555",
"9  c #595959",
"0  c #5E5E5E",
"q  c #5F5F5F",
"w  c #606060",
"e  c #616161",
"r  c #626262",
"t  c #636363",
"y  c #646464",
"u  c #9D5300",
"i  c #A94C00",
"p  c #837501",
"a  c #8B7A00",
"s  c #977E00",
"d  c #D65C11",
"f  c #888702",
"g  c #8B8901",
"h  c #8C8800",
"j  c #8C8B01",
"k  c #989502",
"l  c #9B9A00",
"z  c #959408",
"x  c #9F9F10",
"c  c #9D9D15",
"v  c #A09D00",
"b  c #A2A103",
"n  c #A3A007",
"m  c #A8A201",
"M  c #ABA708",
"N  c #B5AE01",
"B  c #B6AE00",
"V  c #BDB700",
"C  c #B9B406",
"Z  c #A7A713",
"A  c #ABAA1B",
"S  c #BCB611",
"D  c #939320",
"F  c #9F9F34",
"G  c #A2A22A",
"H  c #C0B800",
"J  c #CCB40A",
"K  c #C3BC17",
"L  c #C7C000",
"P  c #CDC500",
"I  c #D4CA00",
"U  c #D0C90D",
"Y  c #D0C90E",
"T  c #D9D100",
"R  c #DBD000",
"E  c #D0CA19",
"W  c #ECC601",
"Q  c #E5D800",
"!  c #E6DA00",
"~  c #EBD708",
"^  c #E4DA0E",
"/  c #E5DC11",
"(  c #F2EB08",
")  c #FBEF08",
"_  c #F9F100",
"`  c #FAF30A",
"'  c #FCF508",
"]  c #FCF609",
"[  c #EDE719",
"{  c #FCF611",
"}  c #EEDB37",
"|  c #EEDE3F",
" . c #FAF32C",
".. c #F2EB30",
"X. c #F8E43B",
"o. c #FCF533",
"O. c #F8F137",
"+. c #FAAD7B",
"@. c #F6D84F",
"#. c #E4E341",
"$. c #E6E44A",
"%. c #F3EC44",
"&. c #FCFA43",
"*. c #FBFB44",
"=. c #F2F34B",
"-. c #FCFA4A",
";. c #E4E45A",
":. c #FBF651",
">. c #FCFC54",
",. c #FDFD55",
"<. c #FBFB59",
"1. c #FCFC5D",
"2. c #F7F464",
"3. c #FAF96F",
"4. c #EFF074",
"5. c #FBFB7D",
"6. c #FC9C91",
"7. c #F9ED88",
"8. c #FCFB84",
"9. c #F4F28A",
"0. c #FAF58D",
"q. c #FAFA8C",
"w. c #ECEB94",
"e. c #FAED9E",
"r. c #F8F298",
"t. c #FBC0A9",
"y. c #E4E3A6",
"u. c #FCFBA4",
"i. c #FDFCAF",
"p. c #F0F0BF",
"a. c #F4F0BD",
"s. c #FCE7C4",
"d. c #FCFBC9",
"f. c #F1E9D7",
"g. c #F0EDD6",
"h. c #FCE8DD",
"j. c None",
/* pixels */
"j.j.j.j.j.j.j.j.j.j.j.j.j.j.j.j.j.j.j.j.j.j.j.j.j.j.j.j.j.j.j.j.",
"j.j.j.j.j.j.j.j.j.j.j.j.j.j.j.j.j.j.j.j.j.j.j.j.j.j.j.j.j.j.j.j.",
"j.j.j.j.j.j.j.j.j.j.j.j.j.j.j.j.j.j.j.j.j.j.j.j.j.j.j.j.j.j.j.j.",
"j.j.j.j.j.j.j.j.j.j.j.j.j.j.j.j.j.j.j.j.j.j.j.j.j.j.j.j.j.j.j.j.",
"j.j.j.j.j.j.j.j.j.j.j.j.j.j.j.j.j.j.j.j.j.j.j.j.j.j.j.j.j.j.j.j.",
"j.j.j.j.j.j.j.j.j.j.j.j.j.j.j.j.j.j.j.j.j.j.j.j.j.j.j.j.j.j.j.j.",
"j.j.j.j.j.j.j.j.j.j.j.j.j.j.j.j.j.j.j.j.j.j.j.j.j.j.j.j.j.j.j.j.",
"j.j.j.j.j.j.j.j.j.j.j.j.j.j.j.j.j.j.j.j.j.j.j.j.j.j.j.j.j.j.j.j.",
"j.j.j.j.j.j.j.j.j.j.j.j.j.j.j.j.j.j.j.j.j.j.j.j.j.j.j.j.j.j.j.j.",
"j.j.j.j.j.j.j.j.j.j.j.j.j.j.j.j.j.j.j.j.j.j.j.j.j.j.j.j.j.j.j.j.",
"j.j.j.j.j.j.j.j.j.j.j.j.j.j.j.j.j.j.j.j.j.j.j.j.j.j.j.j.j.j.j.j.",
"j.j.j.j.j.j.j.j.j.j.j.j.j.j.j.j.j.j.j.j.j.j.j.j.j.j.j.j.j.j.j.j.",
"j.j.j.j.j.j.j.j.j.j.j.j.j.j.j.j.j.j.j.j.j.j.j.j.j.j.j.j.j.j.j.j.",
"j.j.j.j.j.j.j.j.j.j.j.j.j.j.j.j.j.j.j.j.j.j.j.j.j.j.j.j.j.j.j.j.",
"j.j.j.j.j.j.j.j.j.j.j.j.j.j.j.j.j.j.j.j.j.j.j.j.j.j.j.j.j.j.j.j.",
"j.j.j.j.j.j.j.j.j.j.j.j.j.j.j.j.j.j.j.j.j.j.j.j.j.j.j.j.j.j.j.j.",
"j.j.j.j.j.j.j.j.j.j.j.j.j.L R ! _ ' &.>.,.j.j.j.j.j.j.j.j.j.j.j.",
"j.j.j.j.j.j.j.j.j.j.j.4.G A K / ` ] { *.=.j.u j.j.j.j.j.j.j.j.j.",
"j.j.j.j.j.j.j.j.j.j.j.e.g.f.a.7.:.X.) ~ M p = j.j.j.j.j.j.j.j.j.",
"j.j.j.j.j.j.j.j.j.j.j.6.h.t.s.+.@.d W i s . # j.j.j.j.j.j.j.j.j.",
"j.j.j.j.j.j.j.j.j.j.j.j.0.| r.} %.J Q a h @ j.j.j.j.j.j.j.j.j.j.",
"j.j.j.j.j.j.j.j.j.j.j.j.1.3.u.q.-.( T l < $ j.j.j.j.j.j.j.j.j.j.",
"j.j.j.j.j.j.j.j.j.j.j.j.j.<.2.9.[ I v < - j.j.j.j.j.j.j.j.j.j.j.",
"j.j.j.j.j.j.j.j.j.j.j.j.j.j.U S k ; % O j.j.j.j.j.j.j.j.j.j.j.j.",
"j.j.j.j.j.j.j.j.j.j.j.j.j.j.j.P V , o j.j.j.j.j.j.j.j.j.j.j.j.j.",
"j.j.j.j.j.j.j.j.j.j.j.j.j.j.j...Y j + j.j.j.j.j.j.j.j.j.j.j.j.j.",
"j.j.j.j.j.j.j.j.j.j.j.j.j.j.D y.$.C > X j.j.j.j.j.j.j.j.j.j.j.j.",
"j.j.j.j.j.j.j.j.j.j.j.j.j.j.j.F c f & j.j.j.j.j.j.j.j.j.j.j.j.j.",
"j.j.j.j.j.j.j.j.j.j.j.j.j.j.5.p.;.x m : j.j.j.0 q w e r r y j.j.",
"j.j.j.j.j.j.j.j.j.j.j.j.Z w.d.i.8.#.n H g *   1 2 3 4 8 9 t j.j.",
"j.j.j.j.j.j.j.j.j.j.j.j.b E O.o. .^ N B z 5 6 6 6 7 7 8 e y j.j.",
"j.j.j.j.j.j.j.j.j.j.j.j.j.j.j.j.j.j.j.j.j.j.j.j.j.j.j.j.j.j.j.j."
};
