/* XPM */
static char *grey32[] = {
/* columns rows colors chars-per-pixel */
"32 32 175 2 ",
"   c #1E1E1E",
".  c #202020",
"X  c #222222",
"o  c #232323",
"O  c #242424",
"+  c #262626",
"@  c #272727",
"#  c #282828",
"$  c #292929",
"%  c #2A2A2A",
"&  c #2B2B2B",
"*  c #2C2C2C",
"=  c #2D2D2D",
"-  c #2E2E2E",
";  c #2F2F2F",
":  c #303030",
">  c #313131",
",  c #323232",
"<  c #333333",
"1  c #343434",
"2  c #353535",
"3  c #363636",
"4  c #373737",
"5  c #383838",
"6  c #393939",
"7  c #3A3A3A",
"8  c #3B3B3B",
"9  c #3C3C3C",
"0  c #3D3D3D",
"q  c #3E3E3E",
"w  c #3F3F3F",
"e  c #404040",
"r  c #414141",
"t  c #424242",
"y  c #434343",
"u  c #444444",
"i  c #454545",
"p  c #464646",
"a  c #474747",
"s  c #484848",
"d  c #494949",
"f  c #4A4A4A",
"g  c #4B4B4B",
"h  c #4C4C4C",
"j  c #4D4D4D",
"k  c #4E4E4E",
"l  c #4F4F4F",
"z  c #505050",
"x  c #515151",
"c  c #525252",
"v  c #535353",
"b  c #545454",
"n  c #555555",
"m  c #565656",
"M  c #575757",
"N  c #585858",
"B  c #595959",
"V  c #5A5A5A",
"C  c #5B5B5B",
"Z  c #5C5C5C",
"A  c #5D5D5D",
"S  c #5E5E5E",
"D  c #5F5F5F",
"F  c #606060",
"G  c #616161",
"H  c #626262",
"J  c #636363",
"K  c #646464",
"L  c #656565",
"P  c #666666",
"I  c #676767",
"U  c #686868",
"Y  c #696969",
"T  c #6A6A6A",
"R  c #6B6B6B",
"E  c #6C6C6C",
"W  c #6D6D6D",
"Q  c #6E6E6E",
"!  c #6F6F6F",
"~  c #707070",
"^  c #717171",
"/  c #727272",
"(  c #737373",
")  c #747474",
"_  c #757575",
"`  c #767676",
"'  c #777777",
"]  c #787878",
"[  c #797979",
"{  c #7A7A7A",
"}  c #7B7B7B",
"|  c #7C7C7C",
" . c #7D7D7D",
".. c #7E7E7E",
"X. c #7F7F7F",
"o. c #808080",
"O. c #818181",
"+. c #828282",
"@. c #838383",
"#. c #848484",
"$. c #858585",
"%. c #868686",
"&. c #878787",
"*. c #888888",
"=. c #898989",
"-. c #8A8A8A",
";. c #8B8B8B",
":. c #8C8C8C",
">. c #8D8D8D",
",. c #8E8E8E",
"<. c #8F8F8F",
"1. c #909090",
"2. c #919191",
"3. c #929292",
"4. c #939393",
"5. c #949494",
"6. c #959595",
"7. c #969696",
"8. c #979797",
"9. c #989898",
"0. c #999999",
"q. c #9A9A9A",
"w. c #9B9B9B",
"e. c #9C9C9C",
"r. c #9D9D9D",
"t. c #9E9E9E",
"y. c #9F9F9F",
"u. c #A0A0A0",
"i. c #A1A1A1",
"p. c #A2A2A2",
"a. c #A3A3A3",
"s. c #A4A4A4",
"d. c #A5A5A5",
"f. c #A6A6A6",
"g. c #A7A7A7",
"h. c #A8A8A8",
"j. c #A9A9A9",
"k. c #AAAAAA",
"l. c #ABABAB",
"z. c #ACACAC",
"x. c #ADADAD",
"c. c #AEAEAE",
"v. c #AFAFAF",
"b. c #B0B0B0",
"n. c #B1B1B1",
"m. c #B2B2B2",
"M. c #B3B3B3",
"N. c #B4B4B4",
"B. c #B5B5B5",
"V. c #B6B6B6",
"C. c #B7B7B7",
"Z. c #B8B8B8",
"A. c #B9B9B9",
"S. c #BABABA",
"D. c #BBBBBB",
"F. c #BCBCBC",
"G. c #BDBDBD",
"H. c #BEBEBE",
"J. c #BFBFBF",
"K. c #C0C0C0",
"L. c #C2C2C2",
"P. c #C4C4C4",
"I. c #C5C5C5",
"U. c #C6C6C6",
"Y. c #C7C7C7",
"T. c #C8C8C8",
"R. c #C9C9C9",
"E. c #CACACA",
"W. c #CBCBCB",
"Q. c #CCCCCC",
"!. c #CDCDCD",
"~. c #CECECE",
"^. c #D2D2D2",
"/. c #D5D5D5",
"(. c #D8D8D8",
/* pixels */
"r r r t e P <.>.,.,.>.>.<.M d ] O.o.X.[ L 4 7 t y t e e w w w w ",
"[ ] _ R d 5.^.U.T.T.E.I.D.m T V.i.y.t.e.] > Z h.l.j.0.O.) ) ) ) ",
"Z.B.f.{ w 6.G.g.f.f.d.p.1.q M e.9.e.u.;.V - Y W.B.B.F.B.c.v.v.x.",
"j.y.6.J 2 6.A.9.p.9.1.0.&.q 0 _ 9.1.>.} w = Y K.e.1.3.2.7.w.7.8.",
"7.3./ p & O.S.t.7.3.<.8.o.y , g j 0 9 7 & ; S G.e.1.4.1.4.3.7.>.",
"S V t = % E V.7.&.<.7.2.+.a ; u p N U Q G a N e.$. ._ U S V B B ",
"& % % % < B M.q.>.2.2.<.@.a & I n.J.V.b.#.q t m h u q 4 , * % % ",
"s r e r w j 9.a.7.4.,.8.{ f $ | I.e.5.6.( : 5 g p 3 e i i i i i ",
"g.s.a.8.M 6 | g.5.3.<.<.} n @ } S.7.8.6.W ; K A.' B i.v.c.c.c.c.",
"s.i.a.>.l 5 A ,.%.o./ R Z t o Q w._ M z i - ;.B.C ^ T.n.c.z.g.k.",
"e.7.0.+.p 3 j s q 4 < = $ O X h B w ; ; % , y.z.V Q n.9.9.5.*.<.",
"2.*.4.X.t 2 X.%./ K d 2 C } +.7.z.v.j.>.t B H.a.c I l.9.9.5.%.1.",
"1.3.,.Y 7 e N.h.g.p.Y j h.T.N.v.m.M.n.;.7 Y K.7.g v %.{ ) ] +.;.",
"B c f < & i z.r.u.1.j f m.k.7.5.,.3.8.( 2 R H.5.a 7 < 3 3 4 e h ",
"y c H J H n l.5.0.-.d r n.a.2.=.%.>.5._ 1 T F.8.a s k f r 8 1 > ",
"&.G.L.C.p.Z l.0.<.6.n 7 d.M.3.,.&.>.6.W , T N.2.u ] j.g.6.,.` h ",
"p.M.t.t.6.H k.e.e.7.Z : =.I.t.2.>.*.5.G > W B.4.t $.a.u.a.s.O.s ",
"p.z.8.t.2.B c.q.8.8.Z & E P.u.3.2.6.2.v & ! c.+.w o.l.y.9.e.} r ",
"a.v.r.e.3.c c.q.7.2.S @ k g.r.o.) T M 7 - B U d q S ) ( ~ Q S 6 ",
"a.l.q.w.2.h y.i.0.2.D + 0 C m 0 - % $ $ , d f k x p 8 4 3 4 4 2 ",
"p.x.9.e.-.e <.f.,.3.D # 3 Z D S H P P I W [ ,.e.t.t.r.e.w.q.| s ",
"t.c.r.t./ = ,.g.2.,.D & = 3.Y.Q.Q.T.R.T.~./.(./.!.~.R.Q.Y.H.` q ",
"<.f.9.+.D ; &.a.0.2.G - + 3.T.c.x.l.b.m.b.n.k.9.8.y.8.e.p.w.H 3 ",
"! $.( C w > _ 9.1.#.S - . | W.e.3.2.1.7.3.r.5.2.3.2.,.,.6.3.G < ",
"f 0 4 0 > 7 k v z j y *   Y K.q.5.4.2.1.:.4.5.3.3.1.,.>.1.+.S : ",
"A } } T j g 9 % + + @ + + z Y m c M _ *.@...o...#.%.$.#.O.X.B : ",
"O.L.D.U.S.k.:...` ) E I F D b d t 7 7 y p i u u y w w w w w 3 4 ",
"%.F.u.u.d.c.C.C.B.S.M.n.m.M.N.f.H s p f q 2 2 1 : ; ; ; ; > 0 f ",
"@.b.9.;.3.3.6.:.&.-.;.2.9.e.g.,.p 9 O.C.h.,.Y n O.;.=.=.+.` J l ",
"Q I z k x c c l z k z x x x c g 5 *  .k.h.i.X.{ m.l.l.h.f.s.%.r ",
"f 3 = & & & $ $ $ $ $ $ $ $ $ $ $ * s c h a i U { / ) / ( ^ m 9 ",
"a u w 0 q 0 4 4 4 4 4 4 4 4 4 4 4 4 w p 8 < 1 q 8 ; ; ; ; ; ; 5 "
};
