/* XPM */
static char *wood32[] = {
/* columns rows colors chars-per-pixel */
"32 32 164 2 ",
"   c #463717",
".  c #473718",
"X  c #4D371A",
"o  c #473818",
"O  c #483818",
"+  c #493818",
"@  c #4A3819",
"#  c #4A3919",
"$  c #4B3919",
"%  c #4C3919",
"&  c #4C3A19",
"*  c #4C3A1A",
"=  c #4D3A1A",
"-  c #4E3A1A",
";  c #4F3A1A",
":  c #4E3B1A",
">  c #4F3B1A",
",  c #4F3B1B",
"<  c #503B1B",
"1  c #513B1B",
"2  c #513C1B",
"3  c #523C1B",
"4  c #52391C",
"5  c #543A1D",
"6  c #553A1D",
"7  c #553B1D",
"8  c #513C1C",
"9  c #513D1C",
"0  c #523C1C",
"q  c #533C1C",
"w  c #523D1C",
"e  c #533D1C",
"r  c #543D1C",
"t  c #553D1C",
"y  c #543D1D",
"u  c #553D1D",
"i  c #563D1D",
"p  c #543E1C",
"a  c #553E1C",
"s  c #543E1D",
"d  c #553E1D",
"f  c #563E1D",
"g  c #573E1D",
"h  c #573F1D",
"j  c #573E1E",
"k  c #563F1E",
"l  c #573F1E",
"z  c #583F1D",
"x  c #593D1F",
"c  c #5A3D1F",
"v  c #583E1E",
"b  c #583F1E",
"n  c #593F1E",
"m  c #593F1F",
"M  c #5A3F1E",
"N  c #5A3F1F",
"B  c #59401E",
"V  c #5A401E",
"C  c #5B401E",
"Z  c #5B411E",
"A  c #5A401F",
"S  c #5B401F",
"D  c #5A411F",
"F  c #5B411F",
"G  c #5C401F",
"H  c #5C411F",
"J  c #5D411F",
"K  c #5C4020",
"L  c #5C4120",
"P  c #5D4120",
"I  c #5E4120",
"U  c #5E4021",
"Y  c #5E4121",
"T  c #5F4121",
"R  c #5E4220",
"E  c #5F4220",
"W  c #5F4221",
"Q  c #604220",
"!  c #614220",
"~  c #604221",
"^  c #604321",
"/  c #614321",
"(  c #624321",
")  c #614322",
"_  c #624322",
"`  c #634322",
"'  c #644323",
"]  c #614421",
"[  c #624421",
"{  c #624422",
"}  c #634422",
"|  c #624522",
" . c #634522",
".. c #634423",
"X. c #644422",
"o. c #644522",
"O. c #654522",
"+. c #644423",
"@. c #654423",
"#. c #654523",
"$. c #664522",
"%. c #664423",
"&. c #664523",
"*. c #674523",
"=. c #654622",
"-. c #664623",
";. c #674623",
":. c #664524",
">. c #674524",
",. c #674624",
"<. c #684623",
"1. c #684624",
"2. c #694624",
"3. c #684724",
"4. c #694724",
"5. c #694725",
"6. c #6A4724",
"7. c #6B4724",
"8. c #6A4725",
"9. c #6B4725",
"0. c #694825",
"q. c #6A4824",
"w. c #6B4824",
"e. c #6A4825",
"r. c #6B4825",
"t. c #6A4925",
"y. c #6B4826",
"u. c #6C4825",
"i. c #6C4925",
"p. c #6D4925",
"a. c #6E4925",
"s. c #6C4926",
"d. c #6D4926",
"f. c #6E4926",
"g. c #6F4926",
"h. c #6D4A26",
"j. c #6E4A26",
"k. c #6F4A26",
"l. c #6E4A27",
"z. c #6F4A27",
"x. c #6F4B27",
"c. c #704A26",
"v. c #714A27",
"b. c #704B27",
"n. c #714B27",
"m. c #724B27",
"M. c #734B27",
"N. c #714B28",
"B. c #724B28",
"V. c #734B28",
"C. c #724C28",
"Z. c #734C28",
"A. c #744C28",
"S. c #754C28",
"D. c #744D28",
"F. c #754D28",
"G. c #764D29",
"H. c #754E29",
"J. c #774E29",
"K. c #784E2A",
"L. c #784F2A",
"P. c #794F2A",
"I. c #7B502B",
"U. c #7D512C",
/* pixels */
"Y U U Y T Y Y Y Y Y Y Y Y T Y U Y T Y Y Y Y T Y U Y Y Y U Y T U ",
"j.n.C.h.%.9.x.h.b.b.x.z.r.%.9.n.d.%.9.z.h.y.%.8.b.l.b.b.b.9.' N.",
"% <.g._ 5 ` H O E ^ z r e 7 +.o._ 6 ` ) 0 / 7 T ^ 3 H H ;.+.X D.",
"= { k.W x 5.;.# O.[ V a f c 2.=.;.x 5.G.d.i.x +.{ w R R w.5.4 L.",
"z 0 G b x 5.d.i p.H V a f c ,.] -.x 2.P.A.i.x } { w R J ;.5.4 b.",
"/ # % A x 2.G.7.v.j V a f c @.F ;.x 2.K.A.i.x } { w R F ) 5.4 s.",
"7.< 3 3.x 2.K.M.f.e C a f c } R 6.x 1.F.A.w.x } { w R H G 8.4 0.",
"<.-.( ,.x 1.J.A.w.< C a f c +.e.u.x @.q.g.o.x } { w R P F 8.4 s.",
"J m.r.Q x >.B.S.&.: C a f c ,.Z.4.x ..B j b c } { w R ^ S 5.4 b.",
"e f.7.A c #.u.A.( > Z a f c 2.S._ x +.9 o f c } { w R $.V 1.4 L.",
"$ X.! h c +. .m.S 1 H a f c 5.u.B c #.k + F c } { w R <.u :.4 P.",
"= 0 ; b c } H 6.y e H a f c ,.H f c 1.u.I 3.x } { w J ;.2 +.4 L.",
"3 O # Q c +.d i % t g a f c +.9 f c 2.K.m.i.x } { w S } y +.4 N.",
"V O = ( c +.9 O O S r a f c +.w A x 2.K.A.i.x } { e A / G +.4 s.",
"C $ 3 I c +.9 o # / 3 a f c +.s ^ x ,.F.A.u.x } { e B ^ X...4 0.",
"v q n A c @.p o * -.w a f c ..P <.x %.f.M.4.x } { e b H 6.:.4 0.",
"1 E C l c ,.E O e <.t g f c #.u.u.x ..] u.W c } { e S b a.2.4 t.",
"# N 2 f c 5.f.- I X.i z f c 1.J.u.x +.d f l c } { e P y p.5.4 l.",
"O $ + h c 2.J./ u.Q j n f c 2.K.3.x +.9 o f c } { w E q u.5.4 H.",
"# O + S x 1.J.Z.A.V H C d c 2.A._ x #.d   f c } { w } , <.5.4 L.",
"t O & W x :.m.A.n.q H b f c 5.d.A x ,.^ @ A c } { 2 O., ( 5.4 z.",
"! = t O.x +.3.A.p.= P 2 f c 1.{ k c 2.g.m X.x } | , _ q S 2.4 t.",
"O.n E / x } H f._ & X.* f c #.d f c 2.G.u.r.x } | : ~ y q >.4 0.",
"/ *.$.J c +.e i 2 = <.& f c +.9 A x 2.P.A.u.x } | - ! G ; %.4 0.",
"V v.w.A c #.f O O r -.# f c ..k ( x 1.J.V.4.x } | * J } = @.4 0.",
"1 a.3.B c ,.R O o H / O f c +.o.6.x >.C.v.} x } | * b 4.< +.4 s.",
"# } ~ b x 5.4.@ + X.S # l c 1.G.u.x #.i.u.I c }  .> 0 r.v @.4 b.",
"O j u k c 1.c.2 - 4.8 0 A x 2.P.u.x +. .~ b c } o.2 % &.! @.4 H.",
"# $ $ b c @.6.O.I r.% a F x 2.P.u.x +.f ; f c }  .e O P *.&.4 I.",
"< O $ Q c } D g.V.^ @ P H x 2.J.3.x +.9 o f c } / S O q <.1.4 U.",
"M + < $.x +.w S &.> = <.L x 2.m./ x +.9 . f c +.F E + @ r &.4 U.",
"I 8 i } x #.s @ : + n &./ x ,.] b c #.s O A c &.L K # O + +.4 L."
};
